<?xml version="1.0" encoding="UTF-8"?> <svg xmlns="http://www.w3.org/2000/svg" xmlns:xlink="http://www.w3.org/1999/xlink" id="Layer_1" data-name="Layer 1" viewBox="0 0 425 361"><defs><style>.cls-1{fill:none;}.cls-2{clip-path:url(#clip-path);}.cls-3{fill:#009df8;}</style><clipPath id="clip-path"><rect class="cls-1" x="137.01" y="150.96" width="164.99" height="97.07"></rect></clipPath></defs><g class="cls-2"><path class="cls-3" d="M295.27,229.53a11.73,11.73,0,0,1-2.53,7.28l-42-41.95L292.57,162a11.66,11.66,0,0,1,2.7,7.49ZM283.5,241.31h-128a11.86,11.86,0,0,1-3.64-.58l41.67-41.67,23.88,18.79a3.38,3.38,0,0,0,4.17,0l23.88-18.79,41.67,41.67a11.86,11.86,0,0,1-3.64.58M143.74,229.53V169.47a11.71,11.71,0,0,1,2.7-7.5l41.78,32.89-41.95,41.95a11.73,11.73,0,0,1-2.53-7.28m11.77-71.84h128a11.64,11.64,0,0,1,3.09.43l-67.08,52.81-23.44-18.45a3.89,3.89,0,0,0-.32-.39,3.42,3.42,0,0,0-1.12-.74l-42.21-33.23a11.7,11.7,0,0,1,3.09-.43m128-6.73h-128A18.52,18.52,0,0,0,137,169.47v60.06a18.52,18.52,0,0,0,18.5,18.5h128a18.52,18.52,0,0,0,18.5-18.5V169.47A18.52,18.52,0,0,0,283.5,151"></path></g></svg> 